<svg width="51" height="51" viewBox="0 0 51 51" fill="none" xmlns="http://www.w3.org/2000/svg">
<path d="M23.8527 18.1152C24.0921 17.8758 24.2266 17.5511 24.2266 17.2125C24.2266 16.8739 24.0921 16.5492 23.8527 16.3098C23.6133 16.0704 23.2886 15.9359 22.95 15.9359C22.6114 15.9359 22.2867 16.0704 22.0473 16.3098L18.4467 19.9104L17.4344 18.9873C17.1828 18.7723 16.8576 18.6635 16.5273 18.6839C16.197 18.7043 15.8876 18.8524 15.6645 19.0967C15.4414 19.341 15.3219 19.6625 15.3315 19.9933C15.341 20.324 15.4788 20.6381 15.7157 20.8692L17.6282 22.6159C17.8705 22.8366 18.1885 22.9554 18.5161 22.9478C18.8437 22.9402 19.1558 22.8068 19.3877 22.5751L23.8502 18.1126L23.8527 18.1152ZM23.8527 29.0598C23.9715 29.1782 24.0657 29.3189 24.1299 29.4738C24.1942 29.6287 24.2273 29.7948 24.2273 29.9625C24.2273 30.1302 24.1942 30.2963 24.1299 30.4512C24.0657 30.6061 23.9715 30.7468 23.8527 30.8652L19.3902 35.3277C19.1579 35.5597 18.8451 35.6932 18.5169 35.7003C18.1886 35.7074 17.8703 35.5877 17.6282 35.3659L15.7157 33.6192C15.4788 33.3881 15.341 33.0741 15.3315 32.7433C15.3219 32.4125 15.4414 32.091 15.6645 31.8467C15.8876 31.6024 16.197 31.4543 16.5273 31.4339C16.8576 31.4135 17.1828 31.5223 17.4344 31.7373L18.4467 32.6629L22.0473 29.0598C22.1658 28.9411 22.3065 28.8469 22.4614 28.7826C22.6163 28.7183 22.7823 28.6852 22.95 28.6852C23.1177 28.6852 23.2838 28.7183 23.4387 28.7826C23.5936 28.8469 23.7343 28.9411 23.8527 29.0598ZM28.05 30.6C27.7119 30.6 27.3876 30.7343 27.1485 30.9734C26.9094 31.2125 26.775 31.5368 26.775 31.875C26.775 32.2131 26.9094 32.5374 27.1485 32.7766C27.3876 33.0157 27.7119 33.15 28.05 33.15H34.425C34.7632 33.15 35.0875 33.0157 35.3266 32.7766C35.5657 32.5374 35.7 32.2131 35.7 31.875C35.7 31.5368 35.5657 31.2125 35.3266 30.9734C35.0875 30.7343 34.7632 30.6 34.425 30.6H28.05ZM26.775 19.125C26.775 18.7868 26.9094 18.4625 27.1485 18.2234C27.3876 17.9843 27.7119 17.85 28.05 17.85H34.425C34.7632 17.85 35.0875 17.9843 35.3266 18.2234C35.5657 18.4625 35.7 18.7868 35.7 19.125C35.7 19.4631 35.5657 19.7874 35.3266 20.0266C35.0875 20.2657 34.7632 20.4 34.425 20.4H28.05C27.7119 20.4 27.3876 20.2657 27.1485 20.0266C26.9094 19.7874 26.775 19.4631 26.775 19.125ZM15.3 7.64999C13.2711 7.64999 11.3253 8.45597 9.89066 9.89063C8.456 11.3253 7.65002 13.2711 7.65002 15.3V35.7C7.65002 37.7289 8.456 39.6747 9.89066 41.1094C11.3253 42.544 13.2711 43.35 15.3 43.35H35.7C37.7289 43.35 39.6747 42.544 41.1094 41.1094C42.544 39.6747 43.35 37.7289 43.35 35.7V15.3C43.35 13.2711 42.544 11.3253 41.1094 9.89063C39.6747 8.45597 37.7289 7.64999 35.7 7.64999H15.3ZM10.2 15.3C10.2 13.9474 10.7373 12.6502 11.6938 11.6937C12.6502 10.7373 13.9474 10.2 15.3 10.2H35.7C37.0526 10.2 38.3498 10.7373 39.3063 11.6937C40.2627 12.6502 40.8 13.9474 40.8 15.3V35.7C40.8 37.0526 40.2627 38.3498 39.3063 39.3062C38.3498 40.2627 37.0526 40.8 35.7 40.8H15.3C13.9474 40.8 12.6502 40.2627 11.6938 39.3062C10.7373 38.3498 10.2 37.0526 10.2 35.7V15.3Z" fill="#CF1348"/>
</svg>
