<svg width="66" height="58" viewBox="0 0 66 58" fill="none" xmlns="http://www.w3.org/2000/svg">
<path d="M34.5529 14.5627L34.6405 14.5888L34.6443 14.5845C35.0595 14.6596 35.4714 14.411 35.5934 13.9992C36.705 10.2641 40.207 7.65485 44.1088 7.65485C44.5707 7.65485 44.9453 7.2802 44.9453 6.81828C44.9453 6.35634 44.5707 5.98171 44.1088 5.98171C39.3135 5.98171 35.2839 9.17442 33.99 13.5224C33.858 13.9653 34.1103 14.4307 34.5529 14.5627Z" fill="#38272D" stroke="#F9FFF9" stroke-width="0.284633"/>
<path d="M53.8277 40.8368H49.6622C49.2789 40.8368 48.968 40.5259 48.968 40.1426C48.968 39.7593 49.2789 39.4483 49.6622 39.4483H53.8277C59.5696 39.4483 64.2414 34.7765 64.2414 29.0346C64.2414 23.2927 59.5696 18.6209 53.8277 18.6209H53.7275C53.5262 18.6209 53.3347 18.5336 53.2028 18.3814C53.0709 18.2291 53.0114 18.0273 53.0402 17.8279C53.1022 17.3955 53.1334 16.9611 53.1334 16.5381C53.1334 11.5619 49.0844 7.51286 44.1081 7.51286C42.1722 7.51286 40.326 8.11785 38.7688 9.26285C38.4266 9.51427 37.9407 9.40269 37.7428 9.0263C33.3329 0.628907 21.8146 -0.498778 15.8429 6.80623C13.3273 9.88371 12.3389 13.887 13.1309 17.7888C13.2182 18.2197 12.8884 18.6214 12.4505 18.6214H12.1723C6.43046 18.6214 1.75862 23.2932 1.75862 29.0351C1.75862 34.777 6.43046 39.4489 12.1723 39.4489H16.3378C16.7211 39.4489 17.032 39.7598 17.032 40.1431C17.032 40.5264 16.7211 40.8374 16.3378 40.8374H12.1723C5.6647 40.8374 0.370056 35.5427 0.370056 29.0351C0.370056 22.71 5.37158 17.5309 11.6274 17.2452C11.0397 13.1972 12.1634 9.11405 14.7678 5.92751C21.1613 -1.89417 33.414 -1.01746 38.5935 7.70429C40.2459 6.66836 42.1367 6.12492 44.1079 6.12492C50.137 6.12492 54.9144 11.2564 54.4964 17.2517C60.6945 17.5993 65.6296 22.7511 65.6296 29.0346C65.6296 35.5427 60.335 40.8369 53.8274 40.8369L53.8277 40.8368Z" fill="#38272D"/>
<path d="M15.4084 39.7505C15.4084 49.3995 23.2582 57.2492 32.9071 57.2492C42.5561 57.2492 50.4058 49.3993 50.4058 39.7505C50.4058 30.1015 42.5561 22.2517 32.9071 22.2517C23.2581 22.2517 15.4084 30.1016 15.4084 39.7505ZM17.0818 39.7505C17.0818 31.0247 24.1812 23.9252 32.9071 23.9252C41.6329 23.9252 48.7324 31.0245 48.7324 39.7505C48.7324 48.4763 41.6329 55.5757 32.9071 55.5757C24.1813 55.5757 17.0818 48.4764 17.0818 39.7505Z" fill="#38272D" stroke="#F9FFF9" stroke-width="0.284633"/>
<path d="M32.5743 46.7373C32.5743 47.0965 32.8656 47.3879 33.2249 47.3879C33.584 47.3879 33.8754 47.097 33.8754 46.7373V33.5222C33.8754 33.1629 33.5841 32.8716 33.2249 32.8716C32.8656 32.8716 32.5743 33.163 32.5743 33.5222V46.7373Z" fill="#38272D" stroke="#483EA8" stroke-width="0.284633"/>
<path d="M33.2249 34.4433L29.6189 38.0493L33.2249 34.4433ZM33.2249 34.4433L36.831 38.0494C36.9579 38.1763 37.1249 38.2399 37.291 38.2399L33.2249 34.4433ZM28.6987 38.0494C28.9528 38.3035 29.3649 38.3037 29.6188 38.0494L32.7648 33.0633L28.6987 37.1293C28.4446 37.3835 28.4446 37.7952 28.6987 38.0494ZM33.6849 33.0632C33.4309 32.8091 33.0187 32.809 32.7648 33.0632L37.291 38.2399C37.457 38.2399 37.6241 38.1768 37.7512 38.0492C38.0052 37.7951 38.0052 37.3834 37.7511 37.1293L33.6849 33.0632Z" fill="#38272D" stroke="#483EA8" stroke-width="0.284633"/>
</svg>
