<svg width="36" height="36" viewBox="0 0 36 36" fill="none" xmlns="http://www.w3.org/2000/svg">
<path d="M30.24 10.26C25.92 3.6 17.1 1.62 10.26 5.76C3.60003 9.9 1.44003 18.9 5.76003 25.56L6.12003 26.1L4.68003 31.5L10.08 30.06L10.62 30.42C12.96 31.68 15.48 32.4 18 32.4C20.7 32.4 23.4 31.68 25.74 30.24C32.4 25.92 34.38 17.1 30.24 10.26ZM26.46 24.12C25.74 25.2 24.84 25.92 23.58 26.1C22.86 26.1 21.96 26.46 18.36 25.02C15.3 23.58 12.78 21.24 10.98 18.54C9.90003 17.28 9.36003 15.66 9.18003 14.04C9.18003 12.6 9.72003 11.34 10.62 10.44C10.98 10.08 11.34 9.9 11.7 9.9H12.6C12.96 9.9 13.32 9.9 13.5 10.62C13.86 11.52 14.76 13.68 14.76 13.86C14.94 14.04 14.94 14.4 14.76 14.58C14.94 14.94 14.76 15.3 14.58 15.48C14.4 15.66 14.22 16.02 14.04 16.2C13.68 16.38 13.5 16.74 13.68 17.1C14.4 18.18 15.3 19.26 16.2 20.16C17.28 21.06 18.36 21.78 19.62 22.32C19.98 22.5 20.34 22.5 20.52 22.14C20.7 21.78 21.6 20.88 21.96 20.52C22.32 20.16 22.5 20.16 22.86 20.34L25.74 21.78C26.1 21.96 26.46 22.14 26.64 22.32C26.82 22.86 26.82 23.58 26.46 24.12Z" fill="#20BD1D"/>
</svg>
