<svg width="23" height="22" viewBox="0 0 23 22" fill="none" xmlns="http://www.w3.org/2000/svg">
<g clip-path="url(#clip0_126_337)">
<path d="M10.7965 18.2745C10.7965 18.5157 10.8923 18.747 11.0628 18.9175C11.2334 19.088 11.4646 19.1838 11.7058 19.1838C11.947 19.1838 12.1783 19.088 12.3488 18.9175C12.5193 18.747 12.6151 18.5157 12.6151 18.2745V11.9093H18.9803C19.2215 11.9093 19.4528 11.8135 19.6233 11.643C19.7938 11.4725 19.8896 11.2412 19.8896 11C19.8896 10.7588 19.7938 10.5275 19.6233 10.357C19.4528 10.1865 19.2215 10.0907 18.9803 10.0907H12.6151V3.72548C12.6151 3.48431 12.5193 3.25302 12.3488 3.08249C12.1783 2.91196 11.947 2.81616 11.7058 2.81616C11.4646 2.81616 11.2334 2.91196 11.0628 3.08249C10.8923 3.25302 10.7965 3.48431 10.7965 3.72548V10.0907H4.43129C4.19012 10.0907 3.95883 10.1865 3.7883 10.357C3.61778 10.5275 3.52197 10.7588 3.52197 11C3.52197 11.2412 3.61778 11.4725 3.7883 11.643C3.95883 11.8135 4.19012 11.9093 4.43129 11.9093H10.7965V18.2745Z" fill="#FEFEFE"/>
</g>
<defs>
<clipPath id="clip0_126_337">
<rect width="21.8236" height="21.8236" fill="white" transform="translate(0.794067 0.0882263)"/>
</clipPath>
</defs>
</svg>
