<svg width="561" height="556" viewBox="0 0 561 556" fill="none" xmlns="http://www.w3.org/2000/svg">
<path d="M473.268 555H74.9694L114.799 497.71H433.438L473.268 555Z" fill="#263238" stroke="#263238" stroke-width="0.341009" stroke-linecap="round" stroke-linejoin="round"/>
<path d="M487.099 478.041C487.099 478.041 446.806 416.591 452.807 402.487C458.809 388.383 480.088 412.567 480.088 412.567C480.088 412.567 448.852 329.961 470.008 311.819C491.164 293.678 498.216 386.378 498.216 386.378C498.216 386.378 517.313 332.976 532.467 353.122C547.622 373.269 509.279 415.582 509.279 415.582C509.279 415.582 535.468 416.591 528.375 433.723C521.282 450.856 502.186 468.984 502.186 468.984L487.099 478.041Z" fill="#CF1348"/>
<path d="M475.996 463.937C475.996 463.937 451.825 429.686 463.911 422.634C475.996 415.582 482.039 436.738 482.039 436.738C482.039 436.738 483.048 344.066 502.199 351.118C521.35 358.17 514.285 414.573 514.285 414.573C514.285 414.573 538.455 398.463 537.473 421.625C536.491 444.786 504.218 464.974 504.218 464.974" stroke="#263238" stroke-width="0.341009" stroke-linecap="round" stroke-linejoin="round"/>
<path d="M498.175 465.955L477.019 442.781" stroke="#263238" stroke-width="0.341009" stroke-linecap="round" stroke-linejoin="round"/>
<path d="M499.185 477.032L498.175 419.619" stroke="#263238" stroke-width="0.341009" stroke-linecap="round" stroke-linejoin="round"/>
<path d="M500.194 457.894L519.331 432.714" stroke="#263238" stroke-width="0.341009" stroke-linecap="round" stroke-linejoin="round"/>
<path d="M517.313 459.913H463.924L469.258 507.259H511.979L517.313 459.913Z" fill="#263238" stroke="#263238" stroke-width="0.341009" stroke-linecap="round" stroke-linejoin="round"/>
<path d="M58.7918 478.041C58.7918 478.041 18.4982 416.591 24.5 402.487C30.5017 388.383 51.7807 412.567 51.7807 412.567C51.7807 412.567 20.5033 329.934 41.6595 311.82C62.8158 293.705 69.8678 386.378 69.8678 386.378C69.8678 386.378 88.9643 332.976 104.119 353.123C119.273 373.27 80.9302 415.582 80.9302 415.582C80.9302 415.582 107.12 416.591 100.027 433.724C92.9337 450.856 73.8372 468.984 73.8372 468.984L58.7918 478.041Z" fill="#CF1348"/>
<path d="M50.6212 464.701C50.6212 464.701 25.5775 441.171 24.8137 430.6C24.0498 420.029 40.7592 432.878 47.5794 437.42C54.3996 441.962 30.1334 407.821 30.8836 382.777C31.6338 357.733 45.3015 367.609 49.8574 378.235C54.4132 388.861 56.6776 398.695 58.9691 401C61.2607 403.306 65.0391 383.541 74.9011 388.847C90.6693 397.345 65.0391 426.031 70.3452 431.35C75.6513 436.67 87.8049 408.585 93.8748 423.766C99.9448 438.948 74.1372 466.256 74.1372 466.256" stroke="#263238" stroke-width="0.341009" stroke-linecap="round" stroke-linejoin="round"/>
<path d="M66.5532 463.173L47.5794 406.266" stroke="#263238" stroke-width="0.341009" stroke-linecap="round" stroke-linejoin="round"/>
<path d="M56.6912 434.337L64.2753 416.891" stroke="#263238" stroke-width="0.341009" stroke-linecap="round" stroke-linejoin="round"/>
<path d="M41.5095 445.727L62.7612 451.033L73.387 443.449" stroke="#263238" stroke-width="0.341009" stroke-linecap="round" stroke-linejoin="round"/>
<path d="M89.0053 459.913H35.6169L40.9503 507.259H83.6719L89.0053 459.913Z" fill="#263238" stroke="#263238" stroke-width="0.341009" stroke-linecap="round" stroke-linejoin="round"/>
<path d="M242.296 329.934C242.296 329.934 222.285 331.748 215.015 319.022C207.745 306.295 220.471 290.827 206.831 285.371C193.19 279.915 176.822 298.111 149.541 282.643C122.261 267.175 136.801 247.178 144.085 231.723C151.369 216.269 154.997 208.985 137.715 198.987C120.433 188.988 101.336 159.88 113.162 131.699C124.989 103.518 154.997 116.23 170.452 101.69C185.906 87.1492 172.266 69.8532 171.366 46.2144C170.466 22.5757 202.275 4.37943 233.198 8.93532C264.12 13.4912 270.477 46.2144 270.477 67.1251C270.477 88.0358 303.214 93.5056 318.682 69.8532C334.15 46.2008 346.863 40.7583 369.601 50.7567C392.34 60.7551 373.243 94.4058 384.156 99.862C395.068 105.318 404.152 78.9513 436.889 94.4058C469.626 109.86 451.443 150.781 435.075 160.793C411.259 175.375 439.344 203.652 443.859 220.961C450.475 246.264 430.11 266.506 405.066 265.374C365.059 263.546 355.047 257.19 346.863 269.003C338.679 280.815 364.145 283.557 360.503 302.653C356.861 321.75 349.591 329.02 333.222 329.02C316.854 329.02 306.856 314.479 289.573 321.75C272.291 329.02 250.48 334.476 242.296 329.934Z" fill="#263238" stroke="#263238" stroke-width="0.341009" stroke-linecap="round" stroke-linejoin="round"/>
<path d="M210.691 460.199C207.758 471.08 206.72 482.385 207.622 493.618C209.327 511.01 218.193 520.217 256.727 526.014C295.261 531.811 321.86 527.037 343.344 516.807C364.827 506.577 359.958 469.87 354.379 461.454C348.8 453.038 327.316 451.333 292.533 454.402C257.75 457.471 236.267 452.015 223.649 454.061C211.032 456.107 210.691 460.199 210.691 460.199Z" fill="#696969" stroke="#263238" stroke-width="0.341009" stroke-linecap="round" stroke-linejoin="round"/>
<path opacity="0.3" d="M333.454 465.656C333.454 465.656 315.04 470.43 302.081 473.84C289.123 477.25 287.759 478.614 299.353 479.978C310.948 481.342 332.772 479.978 332.772 479.978C332.772 479.978 302.081 494.301 285.713 497.711C269.345 501.121 239.336 490.208 235.926 487.48C232.516 484.752 250.248 484.752 255.022 482.706C259.796 480.66 257.068 477.932 240.018 475.204C222.967 472.476 226.377 488.162 241.382 499.075C256.386 509.987 265.252 513.397 284.69 509.987C304.127 506.577 330.726 498.393 339.592 482.024C348.459 465.656 333.454 465.656 333.454 465.656Z" fill="black"/>
<path d="M202.002 356.464L199.738 402.023C199.738 402.023 195.646 412.608 203.011 419.401C210.377 426.194 219.871 424.189 224.836 415.377C229.801 406.566 229.119 386.173 230.374 378.112C231.629 370.05 221.821 361.743 213.76 358.729C205.699 355.714 202.002 356.464 202.002 356.464Z" fill="white" stroke="#263238" stroke-width="0.341009" stroke-linecap="round" stroke-linejoin="round"/>
<path d="M361.512 356.464L363.777 402.023C363.777 402.023 367.801 412.608 360.503 419.401C353.205 426.194 343.63 424.189 338.597 415.377C333.563 406.566 334.314 386.173 333.059 378.112C331.804 370.05 341.625 361.743 349.673 358.729C357.72 355.714 361.512 356.464 361.512 356.464Z" fill="white" stroke="#263238" stroke-width="0.341009" stroke-linecap="round" stroke-linejoin="round"/>
<path d="M263.643 288.576C263.643 288.576 264.502 307.537 259.905 315.571C255.309 323.605 240.659 323.114 231.192 323.114C221.726 323.114 207.636 330.862 203.039 338.623C199.571 344.987 196.597 351.609 194.145 358.429L225.736 375.37C225.736 375.37 222.285 381.986 225.736 391.739C229.187 401.491 234.343 405.242 232.911 410.126C231.479 415.009 212.805 449.751 211.087 455.207C210.218 457.734 209.547 460.324 209.081 462.955C209.081 462.955 248.993 470.716 283.735 469.57C318.477 468.425 354.379 461.523 354.379 461.523C354.379 461.523 343.753 442.863 338.01 432.237C332.268 421.611 327.098 410.699 328.244 406.961C329.389 403.224 336.005 393.184 335.719 375.656C335.719 375.656 361.267 369.055 370.747 358.429C370.747 358.429 359.548 330.575 348.063 325.978C336.578 321.382 323.374 325.978 313.962 323.4C304.55 320.822 299.599 316.212 298.167 312.774C296.734 309.337 295.289 293.241 295.861 289.518L263.643 288.576Z" fill="#CF1348" stroke="#263238" stroke-width="0.341009" stroke-linecap="round" stroke-linejoin="round"/>
<path opacity="0.3" d="M234.562 399.5C234.562 399.5 225.013 389.27 235.926 387.906C246.838 386.541 262.524 397.454 279.575 401.546C296.625 405.638 317.086 387.223 325.952 389.952C334.818 392.68 329.362 406.32 319.814 412.458C310.266 418.596 283.667 417.914 268.663 417.232C253.658 416.55 246.156 412.458 234.562 399.5Z" fill="black"/>
<path d="M246.838 405.829C246.838 405.829 252.035 409.989 265.934 409.989C279.834 409.989 290.487 403.756 300.226 405.488" stroke="#263238" stroke-width="0.341009" stroke-linecap="round" stroke-linejoin="round"/>
<path d="M240.945 406.866C240.945 406.866 246.824 411.722 258.951 412.063" stroke="#263238" stroke-width="0.341009" stroke-linecap="round" stroke-linejoin="round"/>
<path d="M225.736 375.302C225.736 375.302 226.732 370.159 233.32 365.303" stroke="#263238" stroke-width="0.341009" stroke-linecap="round" stroke-linejoin="round"/>
<path d="M335.719 375.588C335.719 375.588 333.413 365.658 327.18 363.571" stroke="#263238" stroke-width="0.341009" stroke-linecap="round" stroke-linejoin="round"/>
<path d="M282.016 358.361C304.482 357.474 311.534 335.854 313.744 323.291C304.373 320.699 299.531 316.13 298.098 312.706C296.666 309.282 295.22 293.173 295.793 289.449L263.643 288.576C263.643 288.576 264.502 307.537 259.905 315.571C257.559 319.663 252.567 321.545 246.988 322.391C249.116 331.407 257.75 359.329 282.016 358.361Z" fill="white"/>
<mask id="mask0_36_951" style="mask-type:luminance" maskUnits="userSpaceOnUse" x="246" y="288" width="68" height="71">
<path d="M282.016 358.361C304.482 357.474 311.534 335.854 313.744 323.291C304.373 320.699 299.531 316.13 298.098 312.706C296.666 309.282 295.22 293.173 295.793 289.449L263.643 288.576C263.643 288.576 264.502 307.537 259.905 315.571C257.559 319.663 252.567 321.545 246.988 322.391C249.116 331.407 257.75 359.329 282.016 358.361Z" fill="white"/>
</mask>
<g mask="url(#mask0_36_951)">
<path opacity="0.3" d="M296.352 302.735C295.78 298.331 295.593 293.886 295.793 289.449L263.643 288.576C263.812 293.461 263.643 298.351 263.138 303.213C268.785 306.909 280.23 311.329 296.352 302.735Z" fill="black"/>
</g>
<path d="M282.016 358.361C304.482 357.474 311.534 335.854 313.744 323.291C304.373 320.699 299.531 316.13 298.098 312.706C296.666 309.282 295.22 293.173 295.793 289.449L263.643 288.576C263.643 288.576 264.502 307.537 259.905 315.571C257.559 319.663 252.567 321.545 246.988 322.391C249.116 331.407 257.75 359.329 282.016 358.361Z" stroke="#263238" stroke-width="0.341009" stroke-linecap="round" stroke-linejoin="round"/>
<path d="M250.002 249.456C250.002 249.456 245.91 242.786 241.886 246.85C237.862 250.915 241.886 259.018 244.492 262.782C247.097 266.547 252.021 269.439 253.181 267.993C254.34 266.547 250.002 249.456 250.002 249.456Z" fill="white" stroke="#263238" stroke-width="0.341009" stroke-linecap="round" stroke-linejoin="round"/>
<path d="M312.857 248.856C312.857 248.856 318.654 241.326 321.846 248.569C325.038 255.812 316.39 266.82 312.298 268.853C308.206 270.885 310.266 264.215 310.552 261.896C310.838 259.577 312.857 248.856 312.857 248.856Z" fill="white" stroke="#263238" stroke-width="0.341009" stroke-linecap="round" stroke-linejoin="round"/>
<path d="M246.838 223.948C246.838 223.948 248.87 251.475 250.316 265.374C251.762 279.274 256.945 291.741 272.877 295.833C288.809 299.925 301.522 294.387 306.201 285.112C310.879 275.836 313.444 258.172 313.444 243.686V220.497C313.444 220.497 272.304 208.889 246.838 223.948Z" fill="white" stroke="#263238" stroke-width="0.341009" stroke-linecap="round" stroke-linejoin="round"/>
<path d="M277.515 263.342C278.988 264.319 280.679 264.919 282.439 265.088C284.283 264.896 286.063 264.3 287.65 263.342" stroke="#263238" stroke-width="0.341009" stroke-linecap="round" stroke-linejoin="round"/>
<path d="M273.75 272.331C273.75 272.331 280.993 276.968 291.483 271.744" stroke="#263238" stroke-width="0.341009" stroke-linecap="round" stroke-linejoin="round"/>
<path d="M262.17 248.856C262.17 248.856 268.253 247.996 271.718 250.315" stroke="#263238" stroke-width="0.682018" stroke-linecap="round" stroke-linejoin="round"/>
<path d="M290.555 250.015C290.555 250.015 296.352 247.123 301.849 249.729" stroke="#263238" stroke-width="0.682018" stroke-linecap="round" stroke-linejoin="round"/>
<path d="M248.557 246.223C250.543 242.873 252.097 239.284 253.181 235.543C254.942 230.645 255.49 225.394 254.777 220.238C252.023 221.231 249.366 222.472 246.838 223.948C246.838 223.948 247.602 234.738 248.557 246.223Z" fill="#263238" stroke="#263238" stroke-width="0.341009" stroke-linecap="round" stroke-linejoin="round"/>
<path d="M313.43 243.918C313.43 243.822 313.43 243.74 313.43 243.645V220.456C313.43 220.456 310.593 219.665 305.969 218.765C306.269 223.266 307.619 236.838 313.43 243.918Z" fill="#263238" stroke="#263238" stroke-width="0.341009" stroke-linecap="round" stroke-linejoin="round"/>
<path d="M259.851 238.721C259.851 238.721 264.775 232.064 275.196 234.083" stroke="#263238" stroke-width="0.341009" stroke-linecap="round" stroke-linejoin="round"/>
<path d="M289.969 234.956C292.346 234.086 294.914 233.869 297.404 234.327C299.894 234.785 302.215 235.902 304.127 237.561" stroke="#263238" stroke-width="0.341009" stroke-linecap="round" stroke-linejoin="round"/>
<path d="M284.69 509.987C284.69 509.987 271.391 509.987 247.52 486.457C223.649 462.928 208.645 443.149 190.23 434.965C171.816 426.781 154.083 444.854 155.106 464.292C156.13 483.729 170.452 511.01 213.078 526.696C255.704 542.383 292.192 535.904 295.943 535.904C299.694 535.904 318.109 545.111 329.021 546.134C335.028 546.777 341.087 546.777 347.095 546.134C347.095 546.134 350.164 546.475 351.869 546.475C353.574 546.475 355.62 544.429 355.62 544.429C355.62 544.429 359.071 545.329 360.435 542.942C361.799 540.555 360.735 539.655 360.735 539.655C360.735 539.655 366.573 540.159 368.619 536.408C370.665 532.657 367.746 532.807 367.746 532.807C367.746 532.807 371.743 532.03 371.647 528.81C371.722 527.612 371.487 526.414 370.965 525.332C370.965 525.332 373.352 521.581 372.329 518.512C371.306 515.443 367.555 514.42 363.804 516.125C360.053 517.83 341.979 517.148 327.316 516.125C312.653 515.102 284.69 509.987 284.69 509.987Z" fill="white" stroke="#263238" stroke-width="0.341009" stroke-linecap="round" stroke-linejoin="round"/>
<path d="M278.756 508.623C272.673 506.427 262.061 500.834 247.52 486.498C223.649 462.928 208.645 443.149 190.23 434.965C171.816 426.781 154.083 444.854 155.106 464.292C156.13 483.729 170.452 511.01 213.078 526.696C228.976 532.503 245.64 535.945 262.538 536.913C278.033 530.447 279.479 516.807 278.756 508.623Z" fill="#696969"/>
<mask id="mask1_36_951" style="mask-type:luminance" maskUnits="userSpaceOnUse" x="155" y="432" width="124" height="105">
<path d="M278.756 508.623C272.673 506.427 262.061 500.834 247.52 486.498C223.649 462.928 208.645 443.149 190.23 434.965C171.816 426.781 154.083 444.854 155.106 464.292C156.13 483.729 170.452 511.01 213.078 526.696C228.976 532.503 245.64 535.945 262.538 536.913C278.033 530.447 279.479 516.807 278.756 508.623Z" fill="white"/>
</mask>
<g mask="url(#mask1_36_951)">
<path opacity="0.3" d="M272.959 529.547C266.235 526.996 258.378 524.268 249.566 521.581C218.193 512.033 195.005 500.439 179.318 482.706C163.632 464.974 169.088 442.467 169.088 442.467L165.473 439.193C162.002 442.354 159.273 446.243 157.481 450.582C155.689 454.921 154.878 459.603 155.107 464.292C156.13 483.729 170.452 511.01 213.078 526.696C228.976 532.503 245.64 535.946 262.538 536.913C266.548 535.321 270.12 532.796 272.959 529.547Z" fill="black"/>
</g>
<path d="M278.756 508.623C272.673 506.427 262.061 500.834 247.52 486.498C223.649 462.928 208.645 443.149 190.23 434.965C171.816 426.781 154.083 444.854 155.106 464.292C156.13 483.729 170.452 511.01 213.078 526.696C228.976 532.503 245.64 535.945 262.538 536.913C278.033 530.447 279.479 516.807 278.756 508.623Z" stroke="#263238" stroke-width="0.341009" stroke-linecap="round" stroke-linejoin="round"/>
<path d="M370.965 525.332C369.918 524.861 368.779 524.632 367.632 524.66C366.485 524.688 365.358 524.974 364.336 525.496" fill="white"/>
<path d="M370.965 525.332C369.918 524.861 368.779 524.632 367.632 524.66C366.485 524.688 365.358 524.974 364.336 525.496" stroke="#263238" stroke-width="0.341009" stroke-linecap="round" stroke-linejoin="round"/>
<path d="M367.746 532.807C365.983 532.168 364.053 532.168 362.29 532.807H367.746Z" fill="white"/>
<path d="M367.746 532.807C365.983 532.168 364.053 532.168 362.29 532.807" stroke="#263238" stroke-width="0.341009" stroke-linecap="round" stroke-linejoin="round"/>
<path d="M360.735 539.655C359.475 538.707 357.915 538.247 356.343 538.359L360.735 539.655Z" fill="white"/>
<path d="M360.735 539.655C359.475 538.707 357.915 538.247 356.343 538.359" stroke="#263238" stroke-width="0.341009" stroke-linecap="round" stroke-linejoin="round"/>
<path d="M355.265 544.088C355.265 544.088 353.806 541.455 351.664 541.455L355.265 544.088Z" fill="white"/>
<path d="M355.265 544.088C355.265 544.088 353.806 541.455 351.664 541.455" stroke="#263238" stroke-width="0.341009" stroke-linecap="round" stroke-linejoin="round"/>
<path d="M269.563 509.987C269.563 509.987 282.862 509.987 306.733 486.457C330.603 462.928 345.608 443.149 364.022 434.965C382.437 426.781 400.169 444.854 399.146 464.292C398.123 483.729 383.801 511.01 341.175 526.696C298.548 542.383 262.061 535.904 258.309 535.904C254.558 535.904 236.144 545.111 225.232 546.134C219.224 546.777 213.165 546.777 207.158 546.134C207.158 546.134 204.089 546.475 202.384 546.475C200.679 546.475 198.633 544.429 198.633 544.429C198.633 544.429 195.182 545.329 193.818 542.942C192.454 540.555 193.518 539.655 193.518 539.655C193.518 539.655 187.666 540.159 185.62 536.408C183.574 532.657 186.493 532.807 186.493 532.807C186.493 532.807 182.496 532.03 182.592 528.81C182.513 527.61 182.753 526.41 183.287 525.332C183.287 525.332 180.9 521.581 181.923 518.512C182.946 515.443 186.698 514.42 190.449 516.125C194.2 517.83 212.273 517.148 226.937 516.125C241.6 515.102 269.563 509.987 269.563 509.987Z" fill="white" stroke="#263238" stroke-width="0.341009" stroke-linecap="round" stroke-linejoin="round"/>
<path d="M275.483 508.623C281.553 506.427 292.165 500.834 306.719 486.498C330.59 462.969 345.594 443.19 364.009 435.006C382.423 426.822 400.156 444.895 399.133 464.333C398.11 483.77 383.787 511.051 341.161 526.737C325.259 532.546 308.59 535.988 291.687 536.954C276.206 530.447 274.773 516.807 275.483 508.623Z" fill="#696969"/>
<mask id="mask2_36_951" style="mask-type:luminance" maskUnits="userSpaceOnUse" x="275" y="432" width="125" height="105">
<path d="M275.483 508.623C281.553 506.427 292.165 500.834 306.719 486.498C330.59 462.969 345.594 443.19 364.009 435.006C382.423 426.822 400.156 444.895 399.133 464.333C398.11 483.77 383.787 511.051 341.161 526.737C325.259 532.546 308.59 535.988 291.687 536.954C276.206 530.447 274.773 516.807 275.483 508.623Z" fill="white"/>
</mask>
<g mask="url(#mask2_36_951)">
<path opacity="0.3" d="M399.146 464.292C399.856 450.747 391.453 437.884 380.05 434.078L375.057 437.693C375.057 437.693 392.108 447.923 388.016 467.702C383.924 487.48 350.505 507.941 323.906 518.853C310.663 524.044 297.071 528.297 283.23 531.579C285.716 533.844 288.584 535.65 291.701 536.913C308.603 535.947 325.272 532.505 341.175 526.696C383.801 511.01 398.123 483.729 399.146 464.292Z" fill="black"/>
</g>
<path d="M275.483 508.623C281.553 506.427 292.165 500.834 306.719 486.498C330.59 462.969 345.594 443.19 364.009 435.006C382.423 426.822 400.156 444.895 399.133 464.333C398.11 483.77 383.787 511.051 341.161 526.737C325.259 532.546 308.59 535.988 291.687 536.954C276.206 530.447 274.773 516.807 275.483 508.623Z" stroke="#263238" stroke-width="0.341009" stroke-linecap="round" stroke-linejoin="round"/>
<path d="M183.287 525.332C184.334 524.861 185.473 524.632 186.621 524.66C187.768 524.688 188.894 524.974 189.917 525.496" fill="white"/>
<path d="M183.287 525.332C184.334 524.861 185.473 524.632 186.621 524.66C187.768 524.688 188.894 524.974 189.917 525.496" stroke="#263238" stroke-width="0.341009" stroke-linecap="round" stroke-linejoin="round"/>
<path d="M186.493 532.807C188.256 532.168 190.186 532.168 191.949 532.807H186.493Z" fill="white"/>
<path d="M186.493 532.807C188.256 532.168 190.186 532.168 191.949 532.807" stroke="#263238" stroke-width="0.341009" stroke-linecap="round" stroke-linejoin="round"/>
<path d="M193.518 539.655C194.778 538.707 196.338 538.247 197.91 538.359L193.518 539.655Z" fill="white"/>
<path d="M193.518 539.655C194.778 538.707 196.338 538.247 197.91 538.359" stroke="#263238" stroke-width="0.341009" stroke-linecap="round" stroke-linejoin="round"/>
<path d="M198.987 544.088C198.987 544.088 200.461 541.36 202.589 541.36L198.987 544.088Z" fill="white"/>
<path d="M198.987 544.088C198.987 544.088 200.461 541.36 202.589 541.36" stroke="#263238" stroke-width="0.341009" stroke-linecap="round" stroke-linejoin="round"/>
<path d="M207.785 405.052C207.785 405.052 202.752 404.042 193.695 408.571C184.638 413.099 176.317 421.161 171.529 423.93C166.742 426.699 163.482 428.472 159.253 424.189C155.025 419.906 145.913 408.066 137.347 408.325C128.781 408.584 125.766 420.411 127.28 422.92C128.794 425.43 131.058 425.949 132.818 423.93C134.578 421.911 136.842 417.887 139.106 419.401C141.371 420.915 140.116 427.967 136.596 429.222C133.077 430.477 123.502 436.52 125.766 440.053C128.03 443.586 140.88 448.36 150.441 449.11C160.003 449.86 171.843 443.326 179.645 442.058C187.448 440.789 208.604 439.33 218.411 431.241C221.236 428.943 223.401 425.937 224.685 422.529C225.969 419.122 226.327 415.435 225.723 411.844" fill="white"/>
<path d="M207.785 405.052C207.785 405.052 202.752 404.042 193.695 408.571C184.638 413.099 176.317 421.161 171.529 423.93C166.742 426.699 163.482 428.472 159.253 424.189C155.025 419.906 145.913 408.066 137.347 408.325C128.781 408.584 125.766 420.411 127.28 422.92C128.794 425.43 131.058 425.949 132.818 423.93C134.578 421.911 136.842 417.887 139.106 419.401C141.371 420.915 140.116 427.967 136.596 429.222C133.077 430.477 123.502 436.52 125.766 440.053C128.03 443.586 140.88 448.36 150.441 449.11C160.003 449.86 171.843 443.326 179.645 442.058C187.448 440.789 208.604 439.33 218.411 431.241C221.236 428.943 223.401 425.937 224.685 422.529C225.969 419.122 226.327 415.435 225.723 411.844" stroke="#263238" stroke-width="0.341009" stroke-linecap="round" stroke-linejoin="round"/>
<path d="M126.966 434.76C126.966 434.76 125.971 423.684 122.697 422.92C119.423 422.157 118.919 429.741 119.423 437.025C119.928 444.309 123.952 446.341 126.462 444.322C128.972 442.303 126.966 434.76 126.966 434.76Z" fill="white" stroke="#263238" stroke-width="0.341009" stroke-linecap="round" stroke-linejoin="round"/>
<path d="M134.837 437.884C134.837 437.884 135.792 426.794 132.709 425.471C129.626 424.148 127.798 431.5 126.994 438.771C126.189 446.041 129.817 448.742 132.654 447.214C135.492 445.686 134.837 437.884 134.837 437.884Z" fill="white" stroke="#263238" stroke-width="0.341009" stroke-linecap="round" stroke-linejoin="round"/>
<path d="M141.63 440.421C141.63 440.421 142.598 429.345 139.502 428.022C136.406 426.699 134.591 434.051 133.8 441.321C133.009 448.591 136.61 451.292 139.447 449.751C142.285 448.209 141.63 440.421 141.63 440.421Z" fill="white" stroke="#263238" stroke-width="0.341009" stroke-linecap="round" stroke-linejoin="round"/>
<path d="M159.444 448.605C154.873 450.713 149.881 451.749 144.849 451.633C144.557 449.544 144.389 447.44 144.344 445.331C144.344 442.603 150.128 431.241 158.694 431.991" fill="white"/>
<path d="M159.444 448.605C154.873 450.713 149.881 451.749 144.849 451.633C144.557 449.544 144.389 447.44 144.344 445.331C144.344 442.603 150.128 431.241 158.694 431.991" stroke="#263238" stroke-width="0.341009" stroke-linecap="round" stroke-linejoin="round"/>
<path d="M148.846 444.745C148.846 444.745 152.051 436.07 149.405 434.051C146.759 432.032 143.499 437.406 141.221 443.053C138.943 448.701 141.821 452.002 144.822 451.633C147.823 451.265 148.846 444.745 148.846 444.745Z" fill="white" stroke="#263238" stroke-width="0.341009" stroke-linecap="round" stroke-linejoin="round"/>
<path d="M355.715 405.052C355.715 405.052 360.749 404.042 369.819 408.571C378.89 413.099 387.184 421.161 391.971 423.93C396.759 426.699 400.033 428.472 404.316 424.189C408.599 419.906 417.656 408.066 426.209 408.325C434.761 408.584 437.789 420.411 436.289 422.92C434.789 425.43 432.511 425.949 430.751 423.93C428.991 421.911 426.659 417.887 424.449 419.401C422.239 420.915 423.44 427.967 426.973 429.222C430.505 430.477 440.067 436.52 437.789 440.053C435.511 443.586 422.69 448.36 413.128 449.11C403.566 449.86 391.726 443.326 383.91 442.058C376.094 440.789 354.965 439.33 345.144 431.241C342.32 428.943 340.156 425.937 338.874 422.529C337.592 419.121 337.237 415.434 337.846 411.844" fill="white"/>
<path d="M355.715 405.052C355.715 405.052 360.749 404.042 369.819 408.571C378.89 413.099 387.184 421.161 391.971 423.93C396.759 426.699 400.033 428.472 404.316 424.189C408.599 419.906 417.656 408.066 426.209 408.325C434.761 408.584 437.789 420.411 436.289 422.92C434.789 425.43 432.511 425.949 430.751 423.93C428.991 421.911 426.659 417.887 424.449 419.401C422.239 420.915 423.44 427.967 426.973 429.222C430.505 430.477 440.067 436.52 437.789 440.053C435.511 443.586 422.69 448.36 413.128 449.11C403.566 449.86 391.726 443.326 383.91 442.058C376.094 440.789 354.965 439.33 345.144 431.241C342.32 428.943 340.156 425.937 338.874 422.529C337.592 419.121 337.237 415.434 337.846 411.844" stroke="#263238" stroke-width="0.341009" stroke-linecap="round" stroke-linejoin="round"/>
<path d="M436.534 434.76C436.534 434.76 437.544 423.684 440.818 422.92C444.091 422.157 444.596 429.741 444.091 437.025C443.587 444.309 439.563 446.341 437.039 444.322C434.516 442.303 436.534 434.76 436.534 434.76Z" fill="white" stroke="#263238" stroke-width="0.341009" stroke-linecap="round" stroke-linejoin="round"/>
<path d="M428.678 437.884C428.678 437.884 427.709 426.794 430.792 425.471C433.875 424.148 435.716 431.5 436.507 438.771C437.298 446.041 433.711 448.742 430.86 447.241C428.009 445.741 428.678 437.884 428.678 437.884Z" fill="white" stroke="#263238" stroke-width="0.341009" stroke-linecap="round" stroke-linejoin="round"/>
<path d="M421.871 440.421C421.871 440.421 420.916 429.345 423.999 428.022C427.082 426.699 428.923 434.051 429.714 441.321C430.505 448.591 426.891 451.292 424.067 449.751C421.244 448.209 421.871 440.421 421.871 440.421Z" fill="white" stroke="#263238" stroke-width="0.341009" stroke-linecap="round" stroke-linejoin="round"/>
<path d="M404.057 448.605C408.645 450.72 413.656 451.756 418.707 451.633C418.998 449.544 419.167 447.44 419.211 445.331C419.211 442.603 413.414 431.241 404.848 431.991" fill="white"/>
<path d="M404.057 448.605C408.645 450.72 413.656 451.756 418.707 451.633C418.998 449.544 419.167 447.44 419.211 445.331C419.211 442.603 413.414 431.241 404.848 431.991" stroke="#263238" stroke-width="0.341009" stroke-linecap="round" stroke-linejoin="round"/>
<path d="M414.614 444.745C414.614 444.745 411.409 436.07 414.055 434.051C416.701 432.032 419.948 437.406 422.239 443.053C424.531 448.701 421.639 452.002 418.638 451.633C415.637 451.265 414.614 444.745 414.614 444.745Z" fill="white" stroke="#263238" stroke-width="0.341009" stroke-linecap="round" stroke-linejoin="round"/>
<path d="M306.856 207.171C303.65 202.52 298.671 207.048 297.389 208.439C296.025 207.075 291.128 202.52 287.936 207.171C284.458 212.231 297.28 222.775 297.389 222.721C297.498 222.666 310.293 212.231 306.856 207.171Z" stroke="#CF1348" stroke-width="0.341009" stroke-linecap="round" stroke-linejoin="round"/>
<path d="M275.005 211.345C271.001 205.955 265.607 201.754 259.401 199.191C249.416 195.29 255.923 187.488 260.26 189.643C263.059 191.018 265.959 192.176 268.935 193.108C268.935 193.108 257.655 183.996 257.232 176.194C256.809 168.391 268.935 178.363 268.935 178.363C268.935 178.363 254.19 158.066 258.964 154.519C263.738 150.973 268.062 157.561 271.104 163.194C273.264 167.405 275.146 171.751 276.738 176.207C276.738 176.207 275.878 161.899 280.652 166.236C285.427 170.574 282.385 192.262 282.385 192.262C282.385 192.262 288.891 174.53 291.933 184.078C294.975 193.626 276.315 210.035 275.005 211.345Z" stroke="#CF1348" stroke-width="0.341009" stroke-linecap="round" stroke-linejoin="round"/>
<path d="M275.005 211.345C275.005 211.345 281.948 190.516 267.64 163.604" stroke="#CF1348" stroke-width="0.341009" stroke-linecap="round" stroke-linejoin="round"/>
<path d="M251.203 73.0726C246.23 73.0348 241.341 74.3503 237.058 76.8782C230.238 80.9703 228.601 73.7 231.82 72.1041C233.879 71.0606 235.858 69.8661 237.74 68.5303C237.74 68.5303 227.319 71.122 222.517 67.8892C217.716 64.6565 229.024 61.942 229.024 61.942C229.024 61.942 210.405 61.5601 210.487 57.1952C210.568 52.8303 216.338 53.1031 221.031 53.8942C224.481 54.4983 227.889 55.323 231.234 56.3631C231.234 56.3631 222.395 50.4841 227.073 49.5429C231.752 48.6018 243.223 60.1279 243.223 60.1279C243.223 60.1279 235.626 48.3562 242.61 50.8115C249.593 53.2668 251.012 71.7222 251.203 73.0726Z" stroke="#CF1348" stroke-width="0.341009" stroke-linecap="round" stroke-linejoin="round"/>
<path d="M251.203 73.0724C251.203 73.0724 242.009 59.6776 219.735 56.1311" stroke="#CF1348" stroke-width="0.341009" stroke-linecap="round" stroke-linejoin="round"/>
<path d="M337.356 159.252C336.969 159.26 336.585 159.311 336.21 159.402C336.787 158.852 337.223 158.172 337.482 157.418C337.741 156.664 337.816 155.858 337.699 155.07C337.582 154.281 337.278 153.532 336.811 152.886C336.344 152.239 335.729 151.714 335.018 151.355C334.306 150.996 333.519 150.812 332.721 150.821C331.924 150.829 331.141 151.029 330.437 151.403C329.733 151.777 329.129 152.315 328.676 152.971C328.223 153.628 327.935 154.383 327.835 155.174C327.515 154.5 327.048 153.907 326.469 153.437C325.889 152.968 325.211 152.635 324.486 152.463C323.76 152.291 323.005 152.284 322.276 152.442C321.547 152.601 320.864 152.922 320.275 153.38C319.687 153.838 319.209 154.423 318.878 155.091C318.546 155.759 318.368 156.493 318.358 157.239C318.347 157.984 318.505 158.723 318.818 159.4C319.132 160.076 319.593 160.674 320.169 161.148C319.525 161.471 318.959 161.929 318.51 162.491C318.06 163.054 317.738 163.707 317.565 164.405C317.393 165.104 317.373 165.832 317.509 166.539C317.645 167.246 317.933 167.915 318.352 168.5C318.771 169.085 319.312 169.572 319.938 169.928C320.564 170.284 321.26 170.5 321.977 170.561C322.694 170.622 323.416 170.526 324.093 170.281C324.77 170.036 325.386 169.648 325.898 169.142C326.01 170.392 326.592 171.553 327.526 172.391C328.46 173.229 329.677 173.683 330.932 173.66C332.186 173.638 333.386 173.141 334.29 172.27C335.193 171.399 335.733 170.218 335.801 168.964C336.302 169.132 336.827 169.224 337.356 169.237C338.68 169.237 339.949 168.711 340.886 167.775C341.822 166.839 342.348 165.569 342.348 164.245C342.348 162.921 341.822 161.651 340.886 160.715C339.949 159.778 338.68 159.252 337.356 159.252Z" stroke="#CF1348" stroke-width="0.341009" stroke-linecap="round" stroke-linejoin="round"/>
<path d="M328.858 166.632C330.764 166.632 332.309 165.087 332.309 163.181C332.309 161.275 330.764 159.73 328.858 159.73C326.952 159.73 325.407 161.275 325.407 163.181C325.407 165.087 326.952 166.632 328.858 166.632Z" stroke="#CF1348" stroke-width="0.341009" stroke-linecap="round" stroke-linejoin="round"/>
<path d="M237.535 198.523C237.145 198.53 236.756 198.58 236.376 198.673C236.956 198.124 237.396 197.444 237.658 196.689C237.921 195.935 237.997 195.128 237.882 194.338C237.767 193.547 237.464 192.796 236.997 192.148C236.531 191.499 235.915 190.973 235.202 190.612C234.49 190.252 233.7 190.068 232.902 190.077C232.103 190.085 231.318 190.286 230.613 190.662C229.908 191.038 229.304 191.577 228.852 192.236C228.4 192.894 228.112 193.652 228.014 194.444C227.525 193.426 226.705 192.605 225.687 192.115C224.67 191.625 223.516 191.495 222.415 191.747C221.314 192 220.332 192.619 219.629 193.503C218.926 194.387 218.545 195.484 218.548 196.613C218.549 197.341 218.711 198.06 219.022 198.718C219.334 199.376 219.786 199.957 220.349 200.419C219.705 200.741 219.139 201.199 218.689 201.762C218.24 202.324 217.918 202.977 217.745 203.676C217.572 204.375 217.553 205.103 217.689 205.81C217.825 206.517 218.112 207.186 218.532 207.771C218.951 208.356 219.492 208.843 220.118 209.199C220.744 209.554 221.439 209.77 222.157 209.831C222.874 209.892 223.596 209.797 224.273 209.552C224.95 209.307 225.565 208.918 226.077 208.412C226.21 209.646 226.799 210.785 227.729 211.605C228.659 212.426 229.863 212.869 231.103 212.846C232.343 212.824 233.53 212.339 234.43 211.485C235.331 210.632 235.879 209.472 235.967 208.235C236.471 208.411 237.001 208.503 237.535 208.508C238.859 208.508 240.129 207.982 241.065 207.045C242.002 206.109 242.528 204.839 242.528 203.515C242.528 202.191 242.002 200.921 241.065 199.985C240.129 199.049 238.859 198.523 237.535 198.523Z" stroke="#CF1348" stroke-width="0.341009" stroke-linecap="round" stroke-linejoin="round"/>
<path d="M229.024 205.902C230.93 205.902 232.475 204.357 232.475 202.451C232.475 200.545 230.93 199 229.024 199C227.118 199 225.573 200.545 225.573 202.451C225.573 204.357 227.118 205.902 229.024 205.902Z" stroke="#CF1348" stroke-width="0.341009" stroke-linecap="round" stroke-linejoin="round"/>
<path d="M234.807 136.487C234.563 136.491 234.321 136.523 234.084 136.582C234.391 136.296 234.636 135.95 234.802 135.565C234.969 135.18 235.054 134.765 235.053 134.345C235.09 133.534 234.808 132.741 234.266 132.137C233.725 131.532 232.967 131.164 232.158 131.113C231.348 131.061 230.55 131.329 229.935 131.86C229.321 132.39 228.94 133.141 228.874 133.95C228.674 133.531 228.383 133.162 228.022 132.87C227.661 132.579 227.24 132.373 226.788 132.266C226.336 132.16 225.867 132.156 225.414 132.256C224.96 132.355 224.535 132.555 224.17 132.841C223.805 133.127 223.508 133.491 223.302 133.907C223.097 134.323 222.987 134.78 222.982 135.244C222.976 135.707 223.075 136.167 223.271 136.587C223.467 137.008 223.755 137.379 224.113 137.673C223.601 137.923 223.168 138.31 222.865 138.792C222.561 139.274 222.398 139.832 222.395 140.401C222.376 141.029 222.548 141.647 222.887 142.175C223.227 142.703 223.718 143.116 224.297 143.359C224.875 143.603 225.514 143.666 226.129 143.539C226.744 143.413 227.306 143.104 227.742 142.652C227.828 143.419 228.197 144.127 228.778 144.636C229.359 145.145 230.108 145.418 230.88 145.403C231.652 145.387 232.391 145.084 232.95 144.553C233.51 144.021 233.852 143.299 233.907 142.529C234.217 142.644 234.545 142.704 234.875 142.707C235.7 142.707 236.491 142.379 237.075 141.796C237.658 141.212 237.985 140.421 237.985 139.597C237.985 138.772 237.658 137.981 237.075 137.397C236.491 136.814 235.7 136.487 234.875 136.487H234.807Z" stroke="#CF1348" stroke-width="0.341009" stroke-linecap="round" stroke-linejoin="round"/>
<path d="M229.515 141.083C230.705 141.083 231.67 140.118 231.67 138.928C231.67 137.738 230.705 136.773 229.515 136.773C228.325 136.773 227.36 137.738 227.36 138.928C227.36 140.118 228.325 141.083 229.515 141.083Z" stroke="#CF1348" stroke-width="0.341009" stroke-linecap="round" stroke-linejoin="round"/>
<path d="M206.694 231.724C206.455 231.728 206.217 231.76 205.985 231.819C206.288 231.53 206.528 231.183 206.693 230.799C206.857 230.414 206.941 230 206.94 229.582C206.936 228.798 206.635 228.044 206.097 227.473C205.559 226.902 204.825 226.557 204.042 226.506C203.259 226.456 202.486 226.705 201.88 227.202C201.273 227.7 200.878 228.409 200.775 229.186C200.573 228.771 200.282 228.405 199.921 228.117C199.56 227.829 199.14 227.625 198.69 227.52C198.24 227.415 197.772 227.413 197.321 227.512C196.87 227.611 196.447 227.81 196.083 228.094C195.719 228.378 195.423 228.74 195.217 229.153C195.011 229.567 194.9 230.021 194.892 230.483C194.884 230.944 194.979 231.402 195.171 231.822C195.363 232.242 195.646 232.614 196 232.91C195.602 233.112 195.252 233.397 194.974 233.746C194.696 234.096 194.497 234.501 194.39 234.935C194.284 235.368 194.272 235.82 194.357 236.258C194.441 236.697 194.619 237.112 194.879 237.475C195.138 237.838 195.473 238.141 195.861 238.362C196.249 238.584 196.68 238.719 197.124 238.758C197.569 238.797 198.017 238.74 198.438 238.59C198.858 238.44 199.241 238.201 199.561 237.889C199.647 238.656 200.016 239.364 200.597 239.873C201.178 240.382 201.927 240.655 202.699 240.64C203.471 240.624 204.21 240.321 204.769 239.79C205.329 239.258 205.671 238.536 205.726 237.766C206.036 237.88 206.364 237.94 206.694 237.944C207.519 237.944 208.31 237.616 208.894 237.033C209.477 236.449 209.804 235.658 209.804 234.834C209.804 234.009 209.477 233.218 208.894 232.635C208.31 232.051 207.519 231.724 206.694 231.724Z" stroke="#CF1348" stroke-width="0.341009" stroke-linecap="round" stroke-linejoin="round"/>
<path d="M201.402 236.32C202.592 236.32 203.557 235.355 203.557 234.165C203.557 232.975 202.592 232.01 201.402 232.01C200.212 232.01 199.247 232.975 199.247 234.165C199.247 235.355 200.212 236.32 201.402 236.32Z" stroke="#CF1348" stroke-width="0.341009" stroke-linecap="round" stroke-linejoin="round"/>
<path d="M267.067 84.8032C266.827 84.8073 266.589 84.8393 266.357 84.8987C266.715 84.5566 266.985 84.1338 267.145 83.6659C267.305 83.1979 267.351 82.6984 267.279 82.209C267.207 81.7197 267.018 81.2549 266.729 80.8534C266.44 80.4519 266.059 80.1255 265.618 79.9015C265.177 79.6776 264.689 79.5625 264.194 79.566C263.699 79.5695 263.213 79.6915 262.775 79.9217C262.337 80.1519 261.961 80.4836 261.678 80.8891C261.394 81.2947 261.212 81.7621 261.147 82.2524C260.844 81.615 260.332 81.1003 259.697 80.7934C259.061 80.4866 258.34 80.406 257.652 80.5652C256.964 80.7244 256.352 81.1137 255.916 81.6686C255.48 82.2235 255.246 82.9108 255.254 83.6165C255.254 84.0682 255.354 84.5143 255.547 84.9225C255.741 85.3307 256.023 85.6907 256.373 85.9763C255.743 86.2835 255.236 86.7952 254.935 87.4278C254.634 88.0603 254.556 88.7763 254.714 89.4587C254.873 90.1412 255.258 90.7498 255.807 91.185C256.356 91.6203 257.036 91.8566 257.737 91.8553C258.14 91.8557 258.539 91.7763 258.911 91.6218C259.283 91.4673 259.621 91.2407 259.906 90.955C259.99 91.7222 260.358 92.4301 260.938 92.9399C261.517 93.4498 262.266 93.7249 263.038 93.7112C263.81 93.6976 264.549 93.3962 265.11 92.8661C265.671 92.3361 266.014 91.6156 266.071 90.8459C266.383 90.9533 266.71 91.013 267.039 91.0232C267.864 91.0232 268.655 90.6955 269.239 90.1123C269.822 89.5291 270.149 88.738 270.149 87.9132C270.149 87.0884 269.822 86.2973 269.239 85.7141C268.655 85.1308 267.864 84.8032 267.039 84.8032H267.067Z" stroke="#CF1348" stroke-width="0.341009" stroke-linecap="round" stroke-linejoin="round"/>
<path d="M261.774 89.4C262.965 89.4 263.929 88.4351 263.929 87.2448C263.929 86.0545 262.965 85.0896 261.774 85.0896C260.584 85.0896 259.619 86.0545 259.619 87.2448C259.619 88.4351 260.584 89.4 261.774 89.4Z" stroke="#CF1348" stroke-width="0.341009" stroke-linecap="round" stroke-linejoin="round"/>
<path d="M333.7 104.432C333.456 104.436 333.213 104.468 332.977 104.527C333.284 104.241 333.528 103.895 333.695 103.51C333.862 103.125 333.947 102.71 333.945 102.29C333.983 101.479 333.7 100.686 333.159 100.082C332.617 99.4772 331.86 99.1095 331.05 99.0576C330.24 99.0057 329.442 99.274 328.828 99.8046C328.214 100.335 327.833 101.086 327.766 101.895C327.567 101.476 327.276 101.107 326.915 100.816C326.554 100.524 326.132 100.318 325.681 100.211C325.229 100.105 324.759 100.101 324.306 100.201C323.853 100.3 323.428 100.5 323.063 100.786C322.697 101.072 322.401 101.436 322.195 101.852C321.989 102.268 321.88 102.725 321.874 103.189C321.869 103.653 321.968 104.112 322.164 104.532C322.359 104.953 322.647 105.324 323.006 105.618C322.494 105.868 322.061 106.255 321.757 106.737C321.454 107.219 321.291 107.777 321.287 108.346C321.288 108.957 321.469 109.555 321.808 110.063C322.146 110.572 322.627 110.97 323.19 111.207C323.753 111.444 324.374 111.51 324.974 111.397C325.574 111.284 326.128 110.996 326.566 110.57C326.652 111.337 327.022 112.045 327.602 112.553C328.183 113.062 328.933 113.336 329.705 113.32C330.477 113.305 331.215 113.002 331.775 112.47C332.335 111.939 332.676 111.217 332.731 110.447C333.041 110.562 333.369 110.622 333.7 110.624C334.525 110.624 335.316 110.297 335.899 109.713C336.482 109.13 336.81 108.339 336.81 107.514C336.81 106.69 336.482 105.899 335.899 105.315C335.316 104.732 334.525 104.404 333.7 104.404V104.432Z" stroke="#CF1348" stroke-width="0.341009" stroke-linecap="round" stroke-linejoin="round"/>
<path d="M328.407 109.029C329.598 109.029 330.563 108.064 330.563 106.873C330.563 105.683 329.598 104.718 328.407 104.718C327.217 104.718 326.252 105.683 326.252 106.873C326.252 108.064 327.217 109.029 328.407 109.029Z" stroke="#CF1348" stroke-width="0.341009" stroke-linecap="round" stroke-linejoin="round"/>
<path d="M293.215 144.425C294.951 139.708 297.082 135.145 299.585 130.785C302.764 125.779 314.126 124.879 314.126 124.879C314.126 124.879 308.22 134.427 305.492 138.969C302.764 143.511 293.215 144.425 293.215 144.425Z" stroke="#CF1348" stroke-width="0.341009" stroke-linecap="round" stroke-linejoin="round"/>
<path d="M293.215 144.425C293.215 144.425 301.85 132.149 311.862 126.243" stroke="#CF1348" stroke-width="0.341009" stroke-linecap="round" stroke-linejoin="round"/>
<path d="M162.091 188.675C166.993 187.564 171.98 186.866 176.999 186.588C182.919 186.588 189.89 195.563 189.89 195.563C189.89 195.563 178.65 195.809 173.357 195.999C168.065 196.19 162.091 188.675 162.091 188.675Z" stroke="#CF1348" stroke-width="0.341009" stroke-linecap="round" stroke-linejoin="round"/>
<path d="M162.091 188.675C162.091 188.675 177.095 189.234 187.503 194.39" stroke="#CF1348" stroke-width="0.341009" stroke-linecap="round" stroke-linejoin="round"/>
<path d="M364.459 178.294C364.459 178.294 362.249 168.023 357.434 168.623C352.619 169.223 356.507 181.309 356.507 181.309C356.507 181.309 350.178 183.109 350.478 185.824C350.778 188.538 355.279 186.274 359.18 185.674C359.18 185.674 357.611 192.726 361.826 193.858C366.041 194.99 365.236 184.555 365.236 184.555C365.236 184.555 374.648 186.478 377.295 182.264C380.364 177.421 368.374 177.68 364.459 178.294Z" stroke="#CF1348" stroke-width="0.341009" stroke-linecap="round" stroke-linejoin="round"/>
<path d="M364.459 175.13C364.459 175.13 355.675 188.483 356.193 189.888C356.711 191.293 366.219 178.294 367.801 176.712C369.383 175.13 366.573 172.838 364.459 175.13Z" fill="#263238" stroke="#CF1348" stroke-width="0.341009" stroke-linecap="round" stroke-linejoin="round"/>
<path d="M367.801 176.712C367.801 176.712 373.598 171.433 376.408 173.548C379.218 175.662 375.89 176.003 375.535 175.307" stroke="#CF1348" stroke-width="0.341009" stroke-linecap="round" stroke-linejoin="round"/>
<path d="M364.991 174.066C364.991 174.066 366.573 166.332 364.814 164.749C363.054 163.167 362.345 165.281 363.586 166.509" stroke="#CF1348" stroke-width="0.341009" stroke-linecap="round" stroke-linejoin="round"/>
<path d="M280.939 113.816C276.247 106.996 268.99 113.639 267.039 115.671C265.075 113.639 257.819 106.969 253.126 113.816C248.011 121.25 266.862 136.746 267.039 136.677C267.217 136.609 286.027 121.237 280.939 113.816Z" stroke="#CF1348" stroke-width="0.341009" stroke-linecap="round" stroke-linejoin="round"/>
<path d="M215.834 87.2175C210.978 84.3257 208.4 90.5048 207.758 92.3053C205.972 91.6097 199.574 89.5773 198.633 95.1152C197.596 101.158 213.637 105.386 213.733 105.291C213.828 105.195 221.099 90.3548 215.834 87.2175Z" stroke="#CF1348" stroke-width="0.341009" stroke-linecap="round" stroke-linejoin="round"/>
<path d="M170.561 143.47C164.928 143.048 165.364 149.731 165.61 151.655C163.7 151.832 157.071 152.828 158.694 158.229C160.454 164.108 176.713 160.725 176.74 160.603C176.768 160.48 176.672 143.934 170.561 143.47Z" stroke="#CF1348" stroke-width="0.341009" stroke-linecap="round" stroke-linejoin="round"/>
<path d="M349.373 231.833C353.847 228.382 349.059 223.648 347.613 222.448C348.977 221.084 353.192 215.873 348.377 212.9C343.139 209.694 333.291 223.062 333.373 223.171C333.454 223.28 344.517 235.57 349.373 231.833Z" stroke="#CF1348" stroke-width="0.341009" stroke-linecap="round" stroke-linejoin="round"/>
<path d="M323.292 140.033C326.349 137.196 329.765 134.775 333.454 132.831" stroke="#CF1348" stroke-width="0.341009" stroke-linecap="round" stroke-linejoin="round"/>
<path d="M297.989 194.895C297.989 194.895 301.181 167.737 316.131 147.958" stroke="#CF1348" stroke-width="0.341009" stroke-linecap="round" stroke-linejoin="round"/>
<path d="M257.668 206.421C258.958 208.416 260.124 210.489 261.16 212.627" stroke="#CF1348" stroke-width="0.341009" stroke-linecap="round" stroke-linejoin="round"/>
<path d="M206.885 174.188C208.848 175.757 211.056 176.992 213.419 177.844C224.209 181.936 239.268 186.028 250.985 198.059" stroke="#CF1348" stroke-width="0.341009" stroke-linecap="round" stroke-linejoin="round"/>
<path d="M201.825 161.476C201.294 164.337 201.777 167.293 203.189 169.837" stroke="#CF1348" stroke-width="0.341009" stroke-linecap="round" stroke-linejoin="round"/>
<path d="M327.875 90.6274C331.304 87.5114 334.122 83.7829 336.182 79.6333" stroke="#CF1348" stroke-width="0.341009" stroke-linecap="round" stroke-linejoin="round"/>
<path d="M287.459 130.485C289.681 124.903 292.775 119.71 296.625 115.099C304.387 105.864 312.748 101.458 320.182 96.4795" stroke="#CF1348" stroke-width="0.341009" stroke-linecap="round" stroke-linejoin="round"/>
<path d="M282.985 152.61C282.984 149.406 283.281 146.21 283.872 143.061" stroke="#CF1348" stroke-width="0.341009" stroke-linecap="round" stroke-linejoin="round"/>
<path d="M325.516 207.962C331.19 205.098 339.156 202.942 349.823 203.761C376.422 205.807 388.698 213.991 400.292 198.305" stroke="#CF1348" stroke-width="0.341009" stroke-linecap="round" stroke-linejoin="round"/>
<path d="M313.676 218.083C314.9 216.19 316.388 214.481 318.095 213.009" stroke="#CF1348" stroke-width="0.341009" stroke-linecap="round" stroke-linejoin="round"/>
<path d="M370.229 146.267H366.587C364.391 146.267 360.38 143.716 362.208 141.52C364.036 139.324 370.229 144.439 370.229 144.439L364.773 127.293L376.449 121.837L381.196 137.892C381.196 137.892 373.898 134.973 373.161 138.246C372.425 141.52 377.908 141.165 381.196 139.706" stroke="#CF1348" stroke-width="0.341009" stroke-linecap="round" stroke-linejoin="round"/>
<path d="M365.85 130.935L377.158 125.465" stroke="#CF1348" stroke-width="0.341009" stroke-linecap="round" stroke-linejoin="round"/>
<path d="M395.313 140.811H392.913C391.453 140.811 388.821 139.119 390.007 137.673C391.194 136.227 395.313 139.597 395.313 139.597L391.699 128.261L399.419 124.647L402.556 135.259C402.556 135.259 397.728 133.336 397.25 135.504C396.773 137.673 400.388 137.428 402.556 136.459" stroke="#CF1348" stroke-width="0.341009" stroke-linecap="round" stroke-linejoin="round"/>
<path d="M392.422 130.676L399.897 127.061" stroke="#CF1348" stroke-width="0.341009" stroke-linecap="round" stroke-linejoin="round"/>
<path d="M183.206 128.534H180.805C179.346 128.534 176.713 126.843 177.9 125.397C179.086 123.951 183.206 127.32 183.206 127.32L179.591 115.985L187.311 112.37L190.449 122.983C190.449 122.983 185.62 121.059 185.143 123.228C184.665 125.397 188.28 125.151 190.449 124.183" stroke="#CF1348" stroke-width="0.341009" stroke-linecap="round" stroke-linejoin="round"/>
<path d="M180.314 118.399L187.789 114.785" stroke="#CF1348" stroke-width="0.341009" stroke-linecap="round" stroke-linejoin="round"/>
<path d="M411.886 166.877C411.886 166.877 421.762 163.904 420.193 158.066C418.829 153.128 414.219 158.066 414.219 158.066C414.219 158.066 417.083 153.428 412.855 151.245C408.626 149.063 407.399 155.037 407.399 155.037C407.399 155.037 406.553 149.499 402.707 152.05C398.86 154.601 406.976 168.269 406.976 168.269L411.886 166.877Z" stroke="#CF1348" stroke-width="0.341009" stroke-linecap="round" stroke-linejoin="round"/>
<path d="M399.228 187.952C403.09 181.991 405.703 175.309 406.908 168.31L411.109 155.324" stroke="#CF1348" stroke-width="0.341009" stroke-linecap="round" stroke-linejoin="round"/>
<path d="M404.343 177.708C404.753 175.02 404.145 172.277 402.638 170.015C401.133 167.485 399.267 165.187 397.1 163.194C397.1 163.194 395.818 167.887 396.664 170.874C397.51 173.861 404.343 177.708 404.343 177.708Z" stroke="#CF1348" stroke-width="0.341009" stroke-linecap="round" stroke-linejoin="round"/>
<path d="M403.075 181.118C404.734 179.693 406.863 178.934 409.049 178.99H417.152C417.152 178.99 406.908 187.092 403.075 181.118Z" stroke="#CF1348" stroke-width="0.341009" stroke-linecap="round" stroke-linejoin="round"/>
<path d="M405.598 157.52L406.88 167.614L414.042 162.294" stroke="#CF1348" stroke-width="0.341009" stroke-linecap="round" stroke-linejoin="round"/>
<path d="M182.005 210.895C182.005 210.895 175.54 202.874 170.725 206.516C166.633 209.612 172.975 212.054 172.975 212.054C172.975 212.054 167.587 211.154 167.219 215.914C166.851 220.675 172.771 219.447 172.771 219.447C172.771 219.447 167.956 222.325 171.775 224.903C175.594 227.481 185.197 214.837 185.197 214.837L182.005 210.895Z" stroke="#CF1348" stroke-width="0.341009" stroke-linecap="round" stroke-linejoin="round"/>
<path d="M206.272 214.646C199.301 213.307 192.131 213.4 185.197 214.919L171.557 215.928" stroke="#CF1348" stroke-width="0.341009" stroke-linecap="round" stroke-linejoin="round"/>
<path d="M194.855 213.759C192.213 214.392 189.903 215.987 188.375 218.233C186.599 220.583 185.175 223.179 184.147 225.94C184.147 225.94 188.976 225.367 191.417 223.444C193.859 221.52 194.855 213.759 194.855 213.759Z" stroke="#CF1348" stroke-width="0.341009" stroke-linecap="round" stroke-linejoin="round"/>
<path d="M198.497 213.664C196.549 212.665 195.042 210.978 194.268 208.93C192.836 205.37 191.226 201.415 191.226 201.415C191.226 201.415 202.589 207.853 198.497 213.664Z" stroke="#CF1348" stroke-width="0.341009" stroke-linecap="round" stroke-linejoin="round"/>
<path d="M175.69 220.197L184.556 215.205L176.931 210.581" stroke="#CF1348" stroke-width="0.341009" stroke-linecap="round" stroke-linejoin="round"/>
<path d="M247.984 176.603C247.576 175.671 247.121 174.76 246.62 173.875C244.178 169.387 240.591 165.445 234.957 166.25C225.409 167.614 243.142 182.618 246.333 183.068C250.262 183.628 249.252 179.631 247.984 176.603Z" fill="#CF1348"/>
<path d="M240.714 120.227C240.222 119.068 239.704 118.058 239.35 117.499C236.894 112.998 233.32 109.069 227.687 109.874C218.139 111.238 235.871 126.243 239.063 126.693C242.991 127.252 241.982 123.242 240.714 120.227Z" fill="#CF1348"/>
<path d="M336.687 182.141C335.473 182.496 334.409 182.905 333.823 183.137C329.076 185.046 324.752 188.156 324.902 193.844C325.161 203.488 342.102 187.597 342.921 184.473C343.917 180.695 339.824 181.254 336.687 182.141Z" fill="#CF1348"/>
<path d="M348.963 131.221C347.992 131.503 347.036 131.835 346.099 132.217C341.352 134.127 337.028 137.223 337.178 142.911C337.437 152.555 354.379 136.664 355.197 133.554C356.193 129.762 352.101 130.307 348.963 131.221Z" fill="#CF1348"/>
<path d="M418.87 128.057C417.902 128.334 416.95 128.667 416.02 129.052C411.273 130.962 406.949 134.058 407.099 139.746C407.358 149.39 424.299 133.499 425.118 130.389C426.113 126.556 422.021 127.102 418.87 128.057Z" fill="#CF1348"/>
<path d="M227.182 174.434C226.993 173.968 226.779 173.513 226.541 173.07C225.355 170.887 223.609 168.978 220.853 169.346C216.188 170.014 224.85 177.339 226.405 177.53C228.301 177.858 227.81 175.907 227.182 174.434Z" fill="#CF1348"/>
<path d="M193.886 139.051C193.422 138.655 192.959 138.328 192.713 138.151C190.654 136.718 188.239 135.791 185.961 137.373C182.087 140.101 193.109 142.72 194.596 142.229C196.369 141.615 195.1 140.101 193.886 139.051Z" fill="#CF1348"/>
<path d="M243.101 155.788C242.912 155.322 242.698 154.866 242.459 154.424C241.259 152.228 239.513 150.332 236.771 150.7C232.106 151.368 240.768 158.679 242.323 158.884C244.205 159.225 243.714 157.261 243.101 155.788Z" fill="#CF1348"/>
<path d="M162.8 125.069C162.613 124.603 162.399 124.147 162.159 123.705C160.972 121.509 159.226 119.613 156.471 119.982C151.806 120.65 160.467 127.975 162.022 128.166C163.918 128.493 163.427 126.543 162.8 125.069Z" fill="#CF1348"/>
<path d="M184.502 172.852C184.061 172.585 183.606 172.343 183.138 172.129C180.901 171.037 178.363 170.492 176.317 172.401C172.907 175.662 184.215 176.589 185.606 175.866C187.407 174.993 185.866 173.684 184.502 172.852Z" fill="#CF1348"/>
<path d="M239.008 102.14C238.819 101.674 238.605 101.219 238.367 100.776C237.167 98.5935 235.421 96.6838 232.679 97.0521C228.014 97.7205 236.676 105.045 238.231 105.236C240.113 105.564 239.622 103.613 239.008 102.14Z" fill="#CF1348"/>
<path d="M290.31 157.575C289.942 158.052 289.628 158.516 289.464 158.775C288.1 160.876 287.268 163.345 288.946 165.595C291.783 169.36 294.02 158.243 293.461 156.77C292.779 154.942 291.306 156.32 290.31 157.575Z" fill="#CF1348"/>
<path d="M312.134 186.219C311.766 186.697 311.452 187.161 311.289 187.42C309.925 189.52 309.093 191.989 310.77 194.24C313.608 198.005 315.845 186.888 315.285 185.415C314.603 183.587 313.13 184.965 312.134 186.219Z" fill="#CF1348"/>
<path d="M342.525 111.688C342.063 111.814 341.607 111.964 341.161 112.138C338.829 113.025 336.687 114.498 336.701 117.267C336.701 121.973 345.158 114.403 345.594 112.889C346.072 110.979 344.08 111.197 342.525 111.688Z" fill="#CF1348"/>
<path d="M289.846 94.5425C289.41 94.9653 289.028 95.3745 288.823 95.6064C287.173 97.4751 285.959 99.7804 287.282 102.222C289.505 106.314 293.406 95.7292 293.093 94.2015C292.697 92.3191 291.019 93.4512 289.846 94.5425Z" fill="#CF1348"/>
<path d="M195.796 190.803C196.15 191.142 196.524 191.46 196.914 191.757C198.892 193.299 201.266 194.349 203.625 192.889C207.622 190.421 196.805 187.174 195.25 187.597C193.409 188.074 194.636 189.67 195.796 190.803Z" fill="#CF1348"/>
<path d="M366.219 112.193C365.618 112.193 365.059 112.193 364.745 112.193C362.249 112.343 359.767 113.107 358.948 115.753C357.584 120.255 367.883 115.549 368.742 114.239C369.792 112.643 367.828 112.261 366.219 112.193Z" fill="#CF1348"/>
</svg>
