<svg width="19" height="18" viewBox="0 0 19 18" fill="none" xmlns="http://www.w3.org/2000/svg">
<path fill-rule="evenodd" clip-rule="evenodd" d="M6.52539 5.24684C6.52539 4.45793 6.83878 3.70134 7.39662 3.14351C7.95445 2.58567 8.71104 2.27228 9.49995 2.27228C10.2888 2.27228 11.0454 2.58567 11.6033 3.14351C12.1611 3.70134 12.4745 4.45793 12.4745 5.24684C12.4745 6.03574 12.1611 6.79233 11.6033 7.35017C11.0454 7.908 10.2888 8.22139 9.49995 8.22139C8.71104 8.22139 7.95445 7.908 7.39662 7.35017C6.83878 6.79233 6.52539 6.03574 6.52539 5.24684ZM6.52539 9.70867C5.53926 9.70867 4.59352 10.1004 3.89622 10.7977C3.19893 11.495 2.80719 12.4407 2.80719 13.4269C2.80719 14.0185 3.04223 14.586 3.46061 15.0044C3.87899 15.4227 4.44643 15.6578 5.03811 15.6578H13.9618C14.5535 15.6578 15.1209 15.4227 15.5393 15.0044C15.9577 14.586 16.1927 14.0185 16.1927 13.4269C16.1927 12.4407 15.801 11.495 15.1037 10.7977C14.4064 10.1004 13.4606 9.70867 12.4745 9.70867H6.52539Z" fill="#FCF1F4"/>
</svg>
