<svg width="19" height="19" viewBox="0 0 19 19" fill="none" xmlns="http://www.w3.org/2000/svg">
<path d="M12.1719 16.5371C14.7598 16.5371 16.862 14.4282 16.8769 11.8544L16.9059 8.06559L16.862 7.85886L16.7378 7.60008L16.5274 7.43648C16.2545 7.22305 14.8706 7.45135 14.498 7.11299C14.234 6.87205 14.1931 6.43628 14.1128 5.84434C13.9641 4.69914 13.8704 4.63965 13.6904 4.25147C13.0397 2.87276 11.2713 1.83761 10.0577 1.69409H6.76712C4.17925 1.69409 2.0636 3.80528 2.0636 6.38423V11.8544C2.0636 14.4282 4.17925 16.5364 6.76712 16.5364L12.1719 16.5371ZM6.82735 5.52458H9.4353C9.93354 5.52458 10.3366 5.92912 10.3366 6.42066C10.3366 6.90924 9.93354 7.31749 9.4353 7.31749H6.82735C6.32912 7.31749 5.92755 6.90924 5.92755 6.42066C5.92755 5.92912 6.32912 5.52458 6.82735 5.52458ZM5.92755 11.7845C5.92755 11.2937 6.32912 10.8922 6.82735 10.8922H12.1273C12.6218 10.8922 13.0234 11.2937 13.0234 11.7845C13.0234 12.2694 12.6218 12.6769 12.1273 12.6769H6.82735C6.58999 12.6769 6.36224 12.5831 6.19371 12.416C6.02518 12.2489 5.92951 12.0219 5.92755 11.7845Z" fill="#FCF1F4"/>
</svg>
