<svg width="18" height="18" viewBox="0 0 18 18" fill="none" xmlns="http://www.w3.org/2000/svg">
<g id="mingcute:pencil-fill">
<g id="Group">
<path id="Vector" fill-rule="evenodd" clip-rule="evenodd" d="M14.5439 2.97272C14.1603 2.58926 13.6401 2.37384 13.0977 2.37384C12.5554 2.37384 12.0352 2.58926 11.6516 2.97272L11.1695 3.45545L14.5445 6.83045L15.0259 6.3484C15.2159 6.15846 15.3666 5.93296 15.4694 5.68477C15.5722 5.43658 15.6251 5.17057 15.6251 4.90193C15.6251 4.63328 15.5722 4.36727 15.4694 4.11908C15.3666 3.8709 15.2159 3.64539 15.0259 3.45545L14.5439 2.97272ZM13.5798 7.79454L10.2048 4.41954L4.00705 10.6179C3.87142 10.7536 3.77668 10.9247 3.73364 11.1116L3.03205 14.1491C3.00591 14.2619 3.00891 14.3794 3.04076 14.4907C3.07262 14.602 3.13228 14.7033 3.21413 14.7852C3.29599 14.867 3.39733 14.9267 3.50862 14.9586C3.6199 14.9904 3.73747 14.9934 3.85023 14.9673L6.88841 14.2664C7.0751 14.2232 7.24591 14.1285 7.38137 13.9929L13.5798 7.79454Z" fill="#CF1348"/>
</g>
</g>
</svg>
