<svg width="19" height="18" viewBox="0 0 19 18" fill="none" xmlns="http://www.w3.org/2000/svg">
<g clip-path="url(#clip0_126_604)">
<path d="M5.53397 5.0403C5.66545 5.0403 5.79155 4.98806 5.88452 4.89509C5.9775 4.80212 6.02973 4.67602 6.02973 4.54454V1.56998C6.02973 1.43849 5.9775 1.3124 5.88452 1.21942C5.79155 1.12645 5.66545 1.07422 5.53397 1.07422C5.40248 1.07422 5.27639 1.12645 5.18341 1.21942C5.09044 1.3124 5.03821 1.43849 5.03821 1.56998V4.54454C5.03821 4.67602 5.09044 4.80212 5.18341 4.89509C5.27639 4.98806 5.40248 5.0403 5.53397 5.0403Z" fill="#FCF1F4"/>
<path d="M13.4662 5.0403C13.5976 5.0403 13.7237 4.98806 13.8167 4.89509C13.9097 4.80212 13.9619 4.67602 13.9619 4.54454V1.56998C13.9619 1.43849 13.9097 1.3124 13.8167 1.21942C13.7237 1.12645 13.5976 1.07422 13.4662 1.07422C13.3347 1.07422 13.2086 1.12645 13.1156 1.21942C13.0226 1.3124 12.9704 1.43849 12.9704 1.56998V4.54454C12.9704 4.67602 13.0226 4.80212 13.1156 4.89509C13.2086 4.98806 13.3347 5.0403 13.4662 5.0403Z" fill="#FCF1F4"/>
<path d="M16.5647 3.05731H14.5816V4.54459C14.5816 4.83385 14.4667 5.11127 14.2622 5.31581C14.0576 5.52035 13.7802 5.63526 13.491 5.63526C13.2017 5.63526 12.9243 5.52035 12.7197 5.31581C12.5152 5.11127 12.4003 4.83385 12.4003 4.54459V3.05731H6.62469V4.54459C6.62469 4.83385 6.50978 5.11127 6.30524 5.31581C6.1007 5.52035 5.82328 5.63526 5.53402 5.63526C5.24475 5.63526 4.96733 5.52035 4.76279 5.31581C4.55825 5.11127 4.44334 4.83385 4.44334 4.54459V3.05731H2.4603C2.34233 3.05597 2.22528 3.0783 2.11608 3.12298C2.00688 3.16766 1.90775 3.23379 1.82455 3.31745C1.74135 3.40111 1.67578 3.5006 1.6317 3.61005C1.58762 3.71949 1.56594 3.83666 1.56794 3.95463V15.0497C1.56597 15.1656 1.58685 15.2808 1.62938 15.3886C1.67192 15.4964 1.73528 15.5948 1.81585 15.6781C1.89641 15.7614 1.9926 15.8281 2.09893 15.8742C2.20525 15.9204 2.31963 15.9451 2.43552 15.9471H16.5647C16.6806 15.9451 16.7949 15.9204 16.9013 15.8742C17.0076 15.8281 17.1038 15.7614 17.1843 15.6781C17.2649 15.5948 17.3283 15.4964 17.3708 15.3886C17.4133 15.2808 17.4342 15.1656 17.4322 15.0497V3.95463C17.4342 3.83874 17.4133 3.7236 17.3708 3.61578C17.3283 3.50796 17.2649 3.40958 17.1843 3.32625C17.1038 3.24293 17.0076 3.17629 16.9013 3.13014C16.7949 3.08399 16.6806 3.05924 16.5647 3.05731ZM13.4364 8.30245L8.64243 13.0964L6.02977 10.464C5.91403 10.3367 5.85133 10.1699 5.85452 9.99788C5.85771 9.82585 5.92655 9.66155 6.04694 9.53862C6.16733 9.4157 6.33016 9.34345 6.50209 9.33667C6.67402 9.3299 6.84203 9.38911 6.97172 9.50218L8.64739 11.1779L12.4747 7.35059C12.5375 7.28776 12.6121 7.23793 12.6941 7.20392C12.7762 7.16992 12.8642 7.15242 12.9531 7.15242C13.0419 7.15242 13.1299 7.16992 13.212 7.20392C13.2941 7.23793 13.3686 7.28776 13.4315 7.35059C13.4943 7.41341 13.5441 7.488 13.5781 7.57008C13.6121 7.65217 13.6296 7.74015 13.6296 7.829C13.6296 7.91784 13.6121 8.00582 13.5781 8.08791C13.5441 8.16999 13.4943 8.24458 13.4315 8.3074L13.4364 8.30245Z" fill="#FCF1F4"/>
</g>
<defs>
<clipPath id="clip0_126_604">
<rect width="17.8473" height="17.8473" fill="white" transform="translate(0.576355 0.0827637)"/>
</clipPath>
</defs>
</svg>
