<svg width="19" height="18" viewBox="0 0 19 18" fill="none" xmlns="http://www.w3.org/2000/svg">
<path d="M9.49999 6.25908C10.0917 6.25908 10.6591 6.02404 11.0775 5.60566C11.4959 5.18728 11.7309 4.61984 11.7309 4.02816C11.7309 3.43648 11.4959 2.86904 11.0775 2.45066C10.6591 2.03228 10.0917 1.79724 9.49999 1.79724C8.90831 1.79724 8.34087 2.03228 7.92249 2.45066C7.50411 2.86904 7.26907 3.43648 7.26907 4.02816C7.26907 4.61984 7.50411 5.18728 7.92249 5.60566C8.34087 6.02404 8.90831 6.25908 9.49999 6.25908ZM6.15361 4.30702C6.15361 4.56337 6.10312 4.81721 6.00502 5.05404C5.90692 5.29088 5.76313 5.50607 5.58187 5.68734C5.4006 5.8686 5.18541 6.01239 4.94857 6.11049C4.71174 6.20859 4.4579 6.25908 4.20156 6.25908C3.94521 6.25908 3.69137 6.20859 3.45454 6.11049C3.2177 6.01239 3.00251 5.8686 2.82125 5.68734C2.63998 5.50607 2.49619 5.29088 2.39809 5.05404C2.29999 4.81721 2.2495 4.56337 2.2495 4.30702C2.2495 3.78931 2.45516 3.2928 2.82125 2.92671C3.18733 2.56063 3.68384 2.35497 4.20156 2.35497C4.71927 2.35497 5.21579 2.56063 5.58187 2.92671C5.94795 3.2928 6.15361 3.78931 6.15361 4.30702ZM16.7505 4.30702C16.7505 4.56337 16.7 4.81721 16.6019 5.05404C16.5038 5.29088 16.36 5.50607 16.1787 5.68734C15.9975 5.8686 15.7823 6.01239 15.5454 6.11049C15.3086 6.20859 15.0548 6.25908 14.7984 6.25908C14.5421 6.25908 14.2882 6.20859 14.0514 6.11049C13.8146 6.01239 13.5994 5.8686 13.4181 5.68734C13.2368 5.50607 13.0931 5.29088 12.995 5.05404C12.8969 4.81721 12.8464 4.56337 12.8464 4.30702C12.8464 3.78931 13.052 3.2928 13.4181 2.92671C13.7842 2.56063 14.2807 2.35497 14.7984 2.35497C15.3161 2.35497 15.8126 2.56063 16.1787 2.92671C16.5448 3.2928 16.7505 3.78931 16.7505 4.30702ZM5.80614 7.37454C5.48877 7.76988 5.31618 8.26189 5.31702 8.76886V12.9518C5.31702 13.6406 5.48322 14.2904 5.77826 14.8632C5.35319 15.0867 4.87762 15.1966 4.39758 15.1824C3.91755 15.1681 3.44934 15.0301 3.0383 14.7817C2.62726 14.5334 2.28732 14.1831 2.05142 13.7648C1.81551 13.3465 1.69163 12.8743 1.69177 12.3941V8.76886C1.69177 8.39906 1.83867 8.04441 2.10016 7.78293C2.36165 7.52144 2.7163 7.37454 3.0861 7.37454H5.80614ZM13.2217 14.8632C13.5258 14.272 13.6839 13.6166 13.683 12.9518V8.76886C13.683 8.24125 13.5 7.75658 13.1938 7.37454H15.9139C16.2837 7.37454 16.6383 7.52144 16.8998 7.78293C17.1613 8.04441 17.3082 8.39906 17.3082 8.76886V12.3941C17.3083 12.8743 17.1845 13.3465 16.9486 13.7648C16.7127 14.1831 16.3727 14.5334 15.9617 14.7817C15.5506 15.0301 15.0824 15.1681 14.6024 15.1824C14.1224 15.1966 13.6468 15.0867 13.2217 14.8632ZM7.54793 7.37454C7.17814 7.37454 6.82348 7.52144 6.562 7.78293C6.30051 8.04441 6.15361 8.39906 6.15361 8.76886V12.9518C6.15361 13.8393 6.50617 14.6905 7.13374 15.3181C7.76131 15.9456 8.61247 16.2982 9.49999 16.2982C10.3875 16.2982 11.2387 15.9456 11.8662 15.3181C12.4938 14.6905 12.8464 13.8393 12.8464 12.9518V8.76886C12.8464 8.39906 12.6995 8.04441 12.438 7.78293C12.1765 7.52144 11.8218 7.37454 11.452 7.37454H7.54793Z" fill="#FCF1F4"/>
</svg>
