<svg width="30" height="30" viewBox="0 0 30 30" fill="none" xmlns="http://www.w3.org/2000/svg">
<path d="M8.95833 21.3333C8.95833 22.3875 9.82083 23.25 10.875 23.25H18.5417C19.5958 23.25 20.4583 22.3875 20.4583 21.3333V11.75C20.4583 10.6958 19.5958 9.83333 18.5417 9.83333H10.875C9.82083 9.83333 8.95833 10.6958 8.95833 11.75V21.3333ZM20.4583 6.95833H18.0625L17.3821 6.27792C17.2096 6.10542 16.9604 6 16.7113 6H12.7054C12.4563 6 12.2071 6.10542 12.0346 6.27792L11.3542 6.95833H8.95833C8.43125 6.95833 8 7.38958 8 7.91667C8 8.44375 8.43125 8.875 8.95833 8.875H20.4583C20.9854 8.875 21.4167 8.44375 21.4167 7.91667C21.4167 7.38958 20.9854 6.95833 20.4583 6.95833Z" fill="#CF1348"/>
</svg>
