<svg width="26" height="26" viewBox="0 0 26 26" fill="none" xmlns="http://www.w3.org/2000/svg">
<path fill-rule="evenodd" clip-rule="evenodd" d="M21.8094 3.65636C21.2148 3.0619 20.4084 2.72795 19.5676 2.72795C18.7268 2.72795 17.9204 3.0619 17.3258 3.65636L16.5785 4.4047L21.8105 9.63673L22.5567 8.88945C22.8512 8.59499 23.0849 8.24541 23.2442 7.86066C23.4036 7.47591 23.4857 7.06353 23.4857 6.64707C23.4857 6.23061 23.4036 5.81823 23.2442 5.43348C23.0849 5.04873 22.8512 4.69915 22.5567 4.4047L21.8094 3.65636ZM20.3149 11.1313L15.0829 5.89926L5.47494 15.5082C5.26469 15.7185 5.11781 15.9837 5.05109 16.2735L3.96346 20.9823C3.92294 21.1571 3.92759 21.3394 3.97697 21.5119C4.02636 21.6844 4.11885 21.8415 4.24574 21.9684C4.37263 22.0953 4.52973 22.1878 4.70225 22.2372C4.87477 22.2866 5.05702 22.2912 5.23183 22.2507L9.94172 21.1641C10.2311 21.0972 10.4959 20.9503 10.7059 20.7403L20.3149 11.1313Z" fill="#CF1348"/>
</svg>
