<svg width="19" height="18" viewBox="0 0 19 18" fill="none" xmlns="http://www.w3.org/2000/svg">
<path d="M16.5752 9.29088L9.9406 2.66106C9.89283 2.6132 9.83609 2.57523 9.77363 2.54932C9.71116 2.52341 9.6442 2.51007 9.57658 2.51007C9.50895 2.51007 9.44199 2.52341 9.37952 2.54932C9.31706 2.57523 9.26032 2.6132 9.21255 2.66106L2.5779 9.29088C2.38462 9.48416 2.27509 9.74672 2.27509 10.0205C2.27509 10.5891 2.73737 11.0514 3.30596 11.0514H4.00502V15.7822C4.00502 16.0673 4.23536 16.2976 4.52046 16.2976H8.5457V12.6895H10.3497V16.2976H14.6327C14.9178 16.2976 15.1481 16.0673 15.1481 15.7822V11.0514H15.8472C16.121 11.0514 16.3836 10.9435 16.5769 10.7486C16.9779 10.3459 16.9779 9.69356 16.5752 9.29088Z" fill="#FCF1F4"/>
</svg>
